<svg xmlns="http://www.w3.org/2000/svg" viewBox="0 0 204.31 135.51"><defs><style>.cls-1{fill:#231f20;}</style></defs><g id="Layer_2" data-name="Layer 2"><g id="Layer_1-2" data-name="Layer 1"><path class="cls-1" d="M0,58.65V76.86H5.46l2.59-2.59v-13L5.46,58.65Zm6.7,15-1.8,1.8H1.37V60H4.9l1.8,1.8Z"/><path class="cls-1" d="M13.12,58.6,9.46,76.86h1.41L12,71.54h5l1.18,5.32H19.6L15.78,58.6Zm-.85,11.56,2-10.18h.42l2.09,10.18Z"/><polygon class="cls-1" points="28.28 73.58 23.29 58.65 21.22 58.65 21.22 76.86 22.6 76.86 22.6 60.91 27.96 76.86 29.61 76.86 29.61 58.65 28.26 58.65 28.28 73.58"/><polygon class="cls-1" points="34.47 58.58 32 61.16 32 74.18 34.47 76.93 37.66 76.93 40.12 74.18 40.12 71 38.75 71 38.75 73.67 37.05 75.58 35.07 75.58 33.35 73.67 33.35 61.7 35.04 59.93 37.06 59.93 38.75 61.7 38.75 64.02 40.12 64.02 40.12 61.16 37.65 58.58 34.47 58.58"/><polygon class="cls-1" points="43.62 68.47 48.65 68.47 48.65 67.14 43.62 67.14 43.62 59.98 49.16 59.98 49.16 58.63 42.25 58.63 42.25 76.86 49.39 76.86 49.39 75.48 43.62 75.48 43.62 68.47"/><polygon class="cls-1" points="145.58 61.74 147.27 59.99 149.15 59.99 150.93 61.74 150.93 64.27 152.19 64.27 152.19 61.19 149.74 58.61 146.7 58.61 144.23 61.19 144.23 65.39 150.95 70.16 150.95 73.75 149.19 75.61 147.22 75.61 145.42 73.75 145.42 70.73 144.12 70.73 144.12 74.32 146.66 76.97 149.78 76.97 152.32 74.32 152.32 69.44 145.58 64.7 145.58 61.74"/><polygon class="cls-1" points="157.04 58.64 154.57 61.21 154.57 74.24 157.04 76.99 160.22 76.99 162.69 74.24 162.69 71.06 161.31 71.06 161.31 73.73 159.62 75.64 157.65 75.64 155.92 73.73 155.92 61.76 157.62 59.99 159.63 59.99 161.31 61.76 161.31 64.08 162.69 64.08 162.69 61.21 160.22 58.64 157.04 58.64"/><polygon class="cls-1" points="171.36 67.1 166.19 67.1 166.19 58.73 164.82 58.73 164.82 76.92 166.19 76.92 166.19 68.43 171.36 68.43 171.36 76.92 172.73 76.92 172.73 58.71 171.36 58.71 171.36 67.1"/><path class="cls-1" d="M177.71,58.52l-2.57,2.57V74.25L177.7,77H181l2.57-2.74V61.09l-2.58-2.57Zm4.45,15.18-1.8,1.94h-2.08l-1.79-1.93v-12l1.78-1.8h2.12l1.77,1.8Z"/><path class="cls-1" d="M188.52,58.52,186,61.09V74.25L188.51,77h3.25l2.56-2.74V61.09l-2.57-2.57ZM193,73.7l-1.81,1.94h-2.07l-1.79-1.93v-12l1.78-1.8h2.11l1.78,1.8Z"/><polygon class="cls-1" points="198.02 75.59 198.02 58.66 196.64 58.66 196.64 76.92 204.31 76.92 204.31 75.59 198.02 75.59"/><path class="cls-1" d="M77.91,4.3l-1.63,1V32.18H86.55l4.81-4.85V4.9L86.55.09H74V4h4ZM80.19,4h4.73l2.53,2.49V25.74l-2.53,2.54H80.19Z"/><path class="cls-1" d="M105.71,0V3.91h3.35v.3l-1.63,1-4,27h4l1.25-8.37h6.7l1.24,8.37h4L115.81,0Zm3.52,19.89,2.37-16h.81l2.41,16Z"/><path class="cls-1" d="M78,55.81l-1.64,1V83.74h3.91V72.91h3.4l5,10.83H93L87.24,71.41l3.48-3.74V56.54l-4.94-5H74v3.95h4Zm2.27-.3h4l2.62,2.62v8L84.14,69H80.23Z"/><polygon class="cls-1" points="119.59 51.64 115.29 51.64 109.15 64.58 107.09 64.58 107.09 51.64 100.86 51.64 100.86 55.56 104.81 55.56 104.81 55.85 103.18 56.84 103.18 83.74 107.09 83.74 107.09 68.49 109.15 68.49 116.28 83.74 120.58 83.74 112.54 66.56 119.59 51.64"/><polygon class="cls-1" points="87.19 110.03 84.57 118.67 84.32 118.67 81.78 110.12 79.29 103.07 73.96 103.07 73.96 106.72 78.21 106.72 78.21 107.02 76.84 107.84 82.47 123.35 82.47 135.3 86.38 135.3 86.38 123.35 93.77 103.07 89.64 103.07 87.19 110.03"/><polygon class="cls-1" points="97.25 112.27 100.39 112.27 100.56 102.9 96.94 102.9 97.25 112.27"/><polygon class="cls-1" points="109.06 109.3 111.43 106.77 114.13 106.77 116.54 109.3 116.54 112.65 120.41 112.65 120.41 107.71 115.81 102.9 109.79 102.9 105.19 107.71 105.19 115.79 116.75 123.87 116.75 128.98 114.22 131.65 111.38 131.65 108.85 128.98 108.85 124.64 104.98 124.64 104.98 130.53 109.71 135.51 115.85 135.51 120.58 130.53 120.58 121.85 109.06 113.77 109.06 109.3"/><rect class="cls-1" x="57.47" y="16.05" width="3.15" height="103.41"/><rect class="cls-1" x="133.92" y="16.05" width="3.15" height="103.41"/></g></g></svg>